Coordinates
version=1
nRows=5
nColumns=63
inDegrees=yes

Units are S.I. units (second, meters, Newtons, ...)
If the header above contains a line with 'inDegrees', this indicates whether rotational values are in degrees (yes) or radians (no).

endheader
time	pelvis_tilt	pelvis_list	pelvis_rotation	pelvis_tx	pelvis_ty	pelvis_tz	hip_flexion_r	hip_adduction_r	hip_rotation_r	knee_angle_r	knee_angle_r_beta	ankle_angle_r	subtalar_angle_r	mtp_angle_r	hip_flexion_l	hip_adduction_l	hip_rotation_l	knee_angle_l	knee_angle_l_beta	ankle_angle_l	subtalar_angle_l	mtp_angle_l	L5_S1_Flex_Ext	L5_S1_Lat_Bending	L5_S1_axial_rotation	L4_L5_Flex_Ext	L4_L5_Lat_Bending	L4_L5_axial_rotation	L3_L4_Flex_Ext	L3_L4_Lat_Bending	L3_L4_axial_rotation	L2_L3_Flex_Ext	L2_L3_Lat_Bending	L2_L3_axial_rotation	L1_L2_Flex_Ext	L1_L2_Lat_Bending	L1_L2_axial_rotation	L1_T12_Flex_Ext	L1_T12_Lat_Bending	L1_T12_axial_rotation	Abs_r3	Abs_r2	Abs_r1	Abs_t1	Abs_t2	neck_flexion	neck_bending	neck_rotation	arm_flex_r	arm_add_r	arm_rot_r	elbow_flex_r	pro_sup_r	wrist_flex_r	wrist_dev_r	arm_flex_l	arm_add_l	arm_rot_l	elbow_flex_l	pro_sup_l	wrist_flex_l	wrist_dev_l
      6.53333333	     -0.74151325	      0.04556770	     79.86920128	      0.21751720	      0.49150644	      1.06365716	      1.47042782	     -0.66657623	    -13.05057561	     12.72881310	      0.22215970	     29.69548982	     16.31317115	      0.00000000	     -2.14168015	     -1.23334910	      3.97714675	      3.58769152	      0.06261703	     25.85199897	    -11.68497498	      0.00000000	      0.03905676	     -0.13863556	      0.45039273	      0.07253231	     -0.18438529	      0.47854227	      0.06416635	     -0.33707849	      0.47854227	      0.04463797	     -0.33707849	      0.39409364	      0.03626811	     -0.28270563	      0.36594409	      0.02231703	     -0.21474648	      0.33779455	      0.27897854	     -1.56827315	      2.50494924	      0.00000000	      0.00000000	     25.09868285	      2.08758016	      3.36090568	     12.88842991	     -4.13084489	     55.98068508	     48.06442137	     20.99626909	    -20.74844377	     10.48096654	     16.30472219	    -11.92473329	     73.66279809	     44.89210237	     41.18666927	     -1.07307422	     -3.79651810
      6.55000000	     -0.59294716	     -0.06872731	     79.15844157	      0.21713019	      0.49125362	      1.06460020	      1.69130345	     -0.48241449	    -12.13161425	     12.64939462	      0.22077358	     29.81520611	     16.22284186	      0.00000000	     -2.52142481	     -1.28626506	      4.72612421	      2.67997206	      0.04677434	     24.79573931	    -13.71305507	      0.00000000	      0.04082892	     -0.13147234	      0.69847402	      0.07582339	     -0.17485821	      0.74212865	      0.06707783	     -0.31966184	      0.74212865	      0.04666337	     -0.31966184	      0.61116477	      0.03791374	     -0.26809839	      0.56751014	      0.02332965	     -0.20365065	      0.52385552	      0.29163690	     -1.48724139	      3.88470298	      0.00000000	      0.00000000	     25.38695279	      1.28832865	      1.80615427	     13.81683487	     -3.96819014	     59.68051003	     45.03230708	     26.06655905	    -19.08808441	     13.02501436	     17.06297484	    -10.49711743	     77.17299489	     41.75225425	     35.99382759	     -0.82052306	     -4.91488611
      6.56666667	     -0.35567690	     -0.22532506	     78.45810664	      0.21664574	      0.49087931	      1.06560181	      1.93447806	     -0.20625879	    -11.37483768	     12.53121229	      0.21871091	     30.07454391	     16.49478719	      0.00000000	     -2.73971196	     -1.47301356	      4.28142257	      2.05280836	      0.03582826	     24.50320763	    -14.06224661	      0.00000000	      0.03285106	     -0.11348036	      0.92259943	      0.06100771	     -0.15092887	      0.98026189	      0.05397101	     -0.27591614	      0.98026189	      0.03754548	     -0.27591614	      0.80727450	      0.03050550	     -0.23140914	      0.74961204	      0.01877110	     -0.17578107	      0.69194957	      0.23465184	     -1.28371247	      5.13122124	      0.00000000	      0.00000000	     25.75711800	      0.16644614	      0.05587006	     15.80755022	     -3.90397894	     66.76536183	     41.74374413	     30.99739097	    -15.85625554	     15.79714863	     16.85011380	     -9.11447162	     78.21619119	     38.70833631	     33.93754930	     -0.60122967	     -4.90134868
      6.58333333	     -0.16619682	     -0.51223038	     78.32907619	      0.21555642	      0.49035568	      1.06623939	      2.21645887	      0.07796470	    -10.95839514	     12.28992897	      0.21449973	     30.27192962	     16.40852698	      0.00000000	     -2.60579350	     -1.66192716	      3.95462491	      1.74462955	      0.03044953	     24.40780530	    -14.11944948	      0.00000000	      0.03631028	     -0.09690637	      1.18114431	      0.06743182	     -0.12888547	      1.25496583	      0.05965416	     -0.23561814	      1.25496583	      0.04149902	     -0.23561814	      1.03350127	      0.03371773	     -0.19761147	      0.95967975	      0.02074769	     -0.15010796	      0.88585823	      0.25936070	     -1.09622421	      6.56917032	      0.00000000	      0.00000000	     26.13454497	     -0.25509082	     -1.15175837	     15.66374320	     -3.15372658	     64.43443492	     37.46884828	     62.55937781	     -1.99115074	     19.65500635	     17.51448398	     -7.74128953	     83.40152740	     36.24669918	     25.23275870	     -1.11272224	     -6.26036865
      6.60000000	     -0.06818966	     -0.90546444	     78.52930277	      0.21425034	      0.48964580	      1.06671401	      2.54838557	      0.28458439	    -10.99952074	     11.95548330	      0.20866255	     30.55915020	     16.45039136	      0.00000000	     -2.25479301	     -1.81847483	      4.11118156	      1.58526778	      0.02766814	     24.60145932	    -13.97652926	      0.00000000	      0.04949683	     -0.08970043	      1.36712587	      0.09192055	     -0.11930157	      1.45257124	      0.08131833	     -0.21809762	      1.45257124	      0.05656992	     -0.21809762	      1.19623514	      0.04596275	     -0.18291711	      1.11078977	      0.02828249	     -0.13894596	      1.02534440	      0.35355087	     -1.01470916	      7.60354397	      0.00000000	      0.00000000	     26.68237536	     -0.09405315	     -1.73474568	     15.60439638	     -2.73721126	     65.99118163	     35.72440505	     63.45916999	     -1.49503845	     19.77568862	     16.91433107	     -6.78412833	     83.33713862	     34.38928084	     24.46502665	     -1.64212546	     -5.77163383
